<svg viewBox="0 0 24 24" xmlns="http://www.w3.org/2000/svg" xmlns:xlink="http://www.w3.org/1999/xlink" width="24.000000" height="24.000000" fill="none">
	<defs>
		<g id="pixso_custom_effect_0">
			<effect x="0.000000" y="2.000000" visibility="visible" fill="rgb(31,31,31)" fill-opacity="0.300000012" effectType="innerShadow" stdDeviation="3" radius="0" />
		</g>
		<filter id="filter_0" width="20.000000" height="20.000000" x="2.000000" y="2.000000" filterUnits="userSpaceOnUse" customEffect="url(#pixso_custom_effect_0)" color-interpolation-filters="sRGB">
			<feFlood flood-opacity="0" result="BackgroundImageFix" />
			<feBlend result="shape" in="SourceGraphic" in2="BackgroundImageFix" mode="normal" />
			<feOffset dx="0.000000" dy="2.000000" in="SourceAlpha" />
			<feGaussianBlur stdDeviation="1" />
			<feComposite k2="-1" k3="1" in2="SourceAlpha" operator="arithmetic" />
			<feColorMatrix type="matrix" values="0 0 0 0 0.121569 0 0 0 0 0.121569 0 0 0 0 0.121569 0 0 0 0.3 0 " />
			<feBlend result="effect_innerShadow_1" in2="shape" mode="normal" />
		</filter>
	</defs>
	<rect id="Frame" width="24.000000" height="24.000000" x="0.000000" y="0.000000" fill="rgb(255,255,255)" fill-opacity="0" />
	<path id="Vector" d="M0 0L24 0L24 24L0 24L0 0Z" fill-rule="nonzero" />
	<g filter="url(#filter_0)">
		<path id="Vector" d="M12 2C17.52 2 22 6.48 22 12C22 17.52 17.52 22 12 22C6.48 22 2 17.52 2 12C2 6.48 6.48 2 12 2ZM6.02332 15.4163C7.49083 17.6069 9.69511 19 12.1597 19C14.6243 19 16.8286 17.6069 18.2961 15.4163C16.6885 13.9172 14.5312 13 12.1597 13C9.78821 13 7.63095 13.9172 6.02332 15.4163ZM12 11C13.6569 11 15 9.65685 15 8C15 6.34315 13.6569 5 12 5C10.3431 5 9 6.34315 9 8C9 9.65685 10.3431 11 12 11Z" fill="rgb(209,213,219)" fill-rule="nonzero" />
	</g>
</svg>
